<svg xmlns="http://www.w3.org/2000/svg" viewBox="0 0 435.97 173.13">
  <path fill="#5f6368" d="M207.2,84.56V134.1h-15.3V8.5h40.6a37.09,37.09,0,0,1,26.5,10.5,33.79,33.79,0,0,1,0,49.5,36.79,36.79,0,0,1-26.5,10.5H207.2Zm0-61.06v46h25.6a20.79,20.79,0,0,0,15.5-6.2,20.46,20.46,0,0,0,0-30.1h0a20.91,20.91,0,0,0-15.5-6.2H207.2Z"/>
  <path fill="#5f6368" d="M310.1,46.3c11.7,0,20.9,3.1,27.6,9.4s10.1,14.8,10.1,25.6V134h-14.7V120.1h-.6c-6.5,10.5-15.2,15.7-26,15.7a35.79,35.79,0,0,1-24.3-8.6,27.43,27.43,0,0,1-10-21.6c0-9.1,3.5-16.4,10.4-21.8s16.3-8.1,28.2-8.1a52.46,52.46,0,0,1,22.4,4.5V77.9a18.74,18.74,0,0,0-6.5-14.6,22.93,22.93,0,0,0-15.6-5.9c-9.3,0-16.6,3.9-22,11.8l-13.5-8.5C282.5,51.3,294.3,46.3,310.1,46.3Zm-19.7,63.2a13.63,13.63,0,0,0,5.5,11,19.71,19.71,0,0,0,12.8,4.5,25.32,25.32,0,0,0,17.8-7.3c5.1-4.9,7.6-10.6,7.6-17.3a40.71,40.71,0,0,0-20-5C301.4,95.4,290.4,100.6,290.4,109.5Z"/>
  <path fill="#5f6368" d="M436,49.1,384.7,173.1H369l19-41.3L352.5,49.1h16.5l25.9,62.8h.3l25.2-62.8Z"/>
  <path fill="#4285f4" d="M142.3,73.2a86.94,86.94,0,0,0-1.2-14.4H73v27.2H112a33.67,33.67,0,0,1-14.6,22.1v18.4h23.6C133.5,115.1,142.3,96,142.3,73.2Z"/>
  <path fill="#34a853" d="M73,144.2c19.7,0,36.3-6.5,48.4-17.7l-23.6-18.4c-6.6,4.4-14.9,7-24.8,7-19.1,0-35.2-12.9-41-30.2H7.7v19A72.94,72.94,0,0,0,73,144.2Z"/>
  <path fill="#fbbc04" d="M32,84.9a44,44,0,0,1,0-28v-19H7.7a73.15,73.15,0,0,0,0,65.8Z"/>
  <path fill="#ea4335" d="M73,27.7a39.64,39.64,0,0,1,28,10.9l21-21A70.62,70.62,0,0,0,73,0,72.87,72.87,0,0,0,7.7,37.8L32,56.9C37.8,39.5,53.9,27.7,73,27.7Z"/>
</svg>
